<?xml version="1.0" encoding="utf-8"?>
<!-- Generator: Adobe Illustrator 24.1.0, SVG Export Plug-In . SVG Version: 6.00 Build 0)  -->
<svg version="1.1" id="Layer_2_1_" xmlns="http://www.w3.org/2000/svg" xmlns:xlink="http://www.w3.org/1999/xlink" x="0px" y="0px"
	 viewBox="0 0 303.1 126.6" style="enable-background:new 0 0 303.1 126.6;" xml:space="preserve">
<style type="text/css">
	.st0{fill:#09254C;}
	.st1{fill:#FFBF01;}
	.st2{fill:none;stroke:#09254C;stroke-width:0.24;stroke-miterlimit:10;}
	.st3{fill:#C4D5DE;}
</style>
<g>
	<g>
		<path class="st0" d="M114.2,55.2c0-3.5-2.6-5.2-6.4-5.2c-2.8,0.1-5.4,1.1-7.5,2.9l-2.5-3.5c2.9-2.5,6.6-3.8,10.4-3.7
			c6.8,0,10.7,3.9,10.7,9.5v18.1h-4.7v-3.1c-1.6,2.7-5.2,3.8-8,3.8c-5.9,0-9.7-3.5-9.7-8.6c0-5.2,3.6-8,9.5-8h6.2c1.5,0,2-0.8,2-1.9
			V55.2z M114.2,63.4v-2.9c-0.9,0.6-1.9,0.9-3,0.8H107c-3.7,0-5.6,1.5-5.6,4.2c0,2.3,1.7,4.5,5.5,4.5S114.2,68.2,114.2,63.4z"/>
		<polygon class="st0" points="126.6,50.4 122.4,50.4 122.4,46.5 131.4,46.5 131.4,73.3 126.6,73.3 		"/>
		<path class="st0" d="M161.5,54.5v18.8h-4.7V55.7c0-3.3-2-5.9-5.8-5.9c-2.7,0-5.3,1.5-8,4.7v18.8h-4.8V46.5h4.6v3.7
			c2.2-2.7,5.5-4.4,9-4.4c4.4,0,7.3,1.8,8.6,5c3-3.5,6.1-5,9.9-5c6.4,0,9.7,4,9.7,10v17.6h-4.7V55.7c0-3.3-2-5.9-5.7-5.9
			C166.9,49.8,164.2,51.4,161.5,54.5z"/>
		<path class="st0" d="M199.6,66c0-2.2-2-3.2-5.6-4.5l-1.3-0.5c-4.4-1.6-7.3-3.6-7.3-7.7s4-7.5,9.6-7.5c3.4,0,6.6,1.1,9.2,3.3
			l-2.4,3.4c-2-1.6-4.5-2.5-7-2.6c-2.6,0-4.7,1.3-4.7,3.2c0,1.6,1.3,2.8,3.8,3.7l3,1c5.3,1.9,7.5,4.4,7.5,8.3c0,3.6-3.1,8-10.2,8
			c-3.6,0-7.2-1.2-10-3.5l2.4-3.5c2.1,1.8,4.8,2.9,7.6,3C197.6,70,199.6,68.2,199.6,66z"/>
		<path class="st0" d="M209.2,63.7V46.5h4.7v16.6c0,4.6,3.2,6.8,7.2,6.8s7.2-2.2,7.2-6.8V46.5h4.7v17.2c0,5.6-4.4,10.4-11.9,10.4
			S209.2,69.3,209.2,63.7z"/>
		<path class="st0" d="M262.2,73.3h-4.7V56.1c0-3.7-2.1-6.2-6-6.2c-2.7,0-5.6,1.5-8.4,4.7v18.8h-4.7V46.5h4.6v3.7
			c2.3-2.8,5.7-4.5,9.4-4.4c6.4,0,9.9,4,9.9,10L262.2,73.3z"/>
		<path class="st1" d="M271.2,66.3c2.2,0,3.9,1.7,3.9,3.9c0,2.2-1.7,3.9-3.9,3.9c-2.2,0-3.9-1.7-3.9-3.9l0,0
			C267.3,68,269.1,66.3,271.2,66.3L271.2,66.3z"/>
		<path class="st1" d="M128.6,32.8c2.2,0,3.9,1.7,3.9,3.9s-1.7,3.9-3.9,3.9c-2.2,0-3.9-1.7-3.9-3.9l0,0
			C124.7,34.6,126.5,32.8,128.6,32.8L128.6,32.8z"/>
		<g>
			<circle id="_Path__8_" class="st1" cx="53.7" cy="53.6" r="25.6"/>
			<circle id="_Path_2_8_" class="st0" cx="56.5" cy="58.5" r="17.1"/>
			<circle id="_Path_3_8_" class="st2" cx="53.7" cy="53.6" r="8.5"/>
			<circle id="_Path_4_11_" class="st3" cx="53.7" cy="53.6" r="8.5"/>
		</g>
	</g>
	<g>
		<path class="st0" d="M150.7,95.6l-1,2.8H148l3.6-9.7h1.9l3.7,9.7h-1.8l-1-2.8H150.7z M153.1,92c-0.2-0.7-0.3-0.9-0.5-1.7
			c-0.2,0.6-0.2,0.8-0.5,1.7l-0.8,2.3h2.7L153.1,92z"/>
		<path class="st0" d="M161.7,96.6c1.2,0.4,1.8,0.6,2.6,0.6c1,0,1.7-0.5,1.7-1.4c0-0.7-0.3-1-1.9-1.6c-1.1-0.5-1.5-0.7-1.9-1
			c-0.5-0.4-0.8-1-0.8-1.8c0-1.8,1.2-2.8,3.2-2.8c0.9,0,1.6,0.1,2.7,0.5l-0.3,1.4c-1-0.4-1.6-0.6-2.3-0.6c-0.9,0-1.5,0.5-1.5,1.2
			c0,0.6,0.3,1,1.8,1.5c1.2,0.5,1.6,0.7,2,1.1c0.5,0.4,0.8,1.1,0.8,1.9c0,1.8-1.3,2.9-3.4,2.9c-1,0-1.9-0.1-2.9-0.5L161.7,96.6z"/>
		<path class="st0" d="M171.5,88.9c0,0.6-0.4,1-1,1c-0.6,0-1-0.4-1-1c0-0.6,0.4-1,1-1C171,87.9,171.5,88.3,171.5,88.9z M169.6,91.2
			h1.6v7.1h-1.6V91.2z"/>
		<path class="st0" d="M174.8,95.3c0.1,1.3,0.8,2,2.1,2c0.7,0,1.4-0.2,2.1-0.7l0.6,1.2c-0.9,0.5-1.7,0.7-2.7,0.7
			c-2.4,0-3.7-1.3-3.7-3.7c0-2.3,1.3-3.7,3.4-3.7c1.5,0,2.5,0.6,2.9,1.8c0.3,0.7,0.3,1.3,0.3,2.5H174.8z M178.1,94.2
			c0-1.2-0.6-1.9-1.6-1.9c-1,0-1.6,0.7-1.7,1.9H178.1z"/>
		<path class="st0" d="M181.5,93.7c0-1,0-1.3-0.1-2.5h1.6l0.1,1.1c0.8-0.9,1.4-1.2,2.4-1.2c1,0,1.6,0.4,1.9,1.3
			c0.8-1,1.5-1.3,2.4-1.3c0.9,0,1.5,0.4,1.8,1c0.2,0.4,0.3,1,0.3,2v4.3h-1.6v-4.2c0-0.6,0-0.9-0.1-1.2c-0.1-0.4-0.5-0.6-0.9-0.6
			c-0.6,0-1.2,0.4-1.7,1.2v4.8h-1.6V94c0-1.2-0.3-1.7-1-1.7c-0.6,0-1.2,0.4-1.7,1.2v4.8h-1.6V93.7z"/>
		<path class="st0" d="M195.3,95.3c0.1,1.3,0.8,2,2.1,2c0.7,0,1.4-0.2,2.1-0.7l0.6,1.2c-0.9,0.5-1.7,0.7-2.7,0.7
			c-2.4,0-3.7-1.3-3.7-3.7c0-2.3,1.3-3.7,3.4-3.7c1.5,0,2.5,0.6,2.9,1.8c0.3,0.7,0.3,1.3,0.3,2.5H195.3z M198.6,94.2
			c0-1.2-0.6-1.9-1.6-1.9c-1,0-1.6,0.7-1.7,1.9H198.6z"/>
		<path class="st0" d="M202.1,93.7c0-1,0-1.4-0.1-2.5h1.6l0,1.1c0.9-0.9,1.5-1.2,2.5-1.2c0.9,0,1.6,0.4,1.9,1c0.2,0.4,0.3,1,0.3,2
			v4.3h-1.6v-4.2c0-0.6,0-0.9-0.1-1.2c-0.2-0.4-0.5-0.6-1-0.6c-0.6,0-1.3,0.4-1.9,1.2v4.8h-1.6V93.7z"/>
		<path class="st0" d="M210.6,96.7c0.8,0.4,1.2,0.6,1.9,0.6c0.7,0,1.2-0.3,1.2-0.9c0-0.3-0.1-0.5-0.3-0.6c-0.2-0.1-0.4-0.2-1.1-0.5
			c-0.9-0.3-1.2-0.5-1.5-0.7c-0.4-0.3-0.5-0.8-0.5-1.3c0-1.3,1-2.2,2.6-2.2c0.8,0,1.5,0.2,2.3,0.5l-0.4,1.2
			c-0.6-0.4-1.3-0.5-1.8-0.5c-0.7,0-1.1,0.3-1.1,0.8c0,0.3,0.1,0.5,0.4,0.6c0.2,0.1,0.2,0.1,1.1,0.5c1.5,0.5,2,1.1,2,2
			c0,1.4-1.1,2.3-2.8,2.3c-0.9,0-1.6-0.2-2.3-0.6L210.6,96.7z"/>
		<path class="st0" d="M220.6,88.7h2.6c1.3,0,2,0.1,2.5,0.4c0.7,0.4,1.1,1.2,1.1,2.1c0,1.2-0.5,1.9-1.7,2.2c1.3,0.3,1.9,1,1.9,2.3
			c0,1-0.4,1.7-1.1,2.2c-0.6,0.4-1.2,0.5-2.4,0.5h-2.9V88.7z M223,92.9c0.8,0,1.2-0.1,1.5-0.3c0.3-0.2,0.5-0.6,0.5-1.1
			c0-0.5-0.2-1-0.5-1.2c-0.3-0.2-0.7-0.3-1.6-0.3h-0.7v2.9H223z M223,97.1c0.9,0,1.3,0,1.6-0.2c0.4-0.2,0.6-0.7,0.6-1.3
			c0-0.6-0.3-1.1-0.7-1.3c-0.4-0.2-0.7-0.2-1.5-0.2h-0.8v3H223z"/>
		<path class="st0" d="M235,95.9c0,1,0,1.6,0.1,2.5h-1.6l0-1.1c-0.8,0.9-1.5,1.2-2.5,1.2c-0.9,0-1.6-0.4-1.9-1c-0.2-0.4-0.3-1-0.3-2
			v-4.3h1.6v4.2c0,0.7,0,0.9,0.1,1.2c0.2,0.4,0.5,0.6,1,0.6c0.6,0,1.3-0.4,1.8-1.2v-4.8h1.6V95.9z"/>
		<path class="st0" d="M237.3,96.7c0.8,0.4,1.2,0.6,1.9,0.6c0.7,0,1.2-0.3,1.2-0.9c0-0.3-0.1-0.5-0.3-0.6c-0.2-0.1-0.4-0.2-1.1-0.5
			c-0.9-0.3-1.2-0.5-1.5-0.7c-0.4-0.3-0.5-0.8-0.5-1.3c0-1.3,1-2.2,2.6-2.2c0.8,0,1.5,0.2,2.3,0.5l-0.4,1.2
			c-0.6-0.4-1.3-0.5-1.8-0.5c-0.7,0-1.1,0.3-1.1,0.8c0,0.3,0.1,0.5,0.4,0.6c0.2,0.1,0.2,0.1,1.1,0.5c1.5,0.5,2,1.1,2,2
			c0,1.4-1.1,2.3-2.8,2.3c-0.9,0-1.6-0.2-2.3-0.6L237.3,96.7z"/>
		<path class="st0" d="M245.6,88.9c0,0.6-0.4,1-1,1c-0.6,0-1-0.4-1-1c0-0.6,0.4-1,1-1C245.1,87.9,245.6,88.3,245.6,88.9z
			 M243.7,91.2h1.6v7.1h-1.6V91.2z"/>
		<path class="st0" d="M247.7,93.7c0-1,0-1.4-0.1-2.5h1.6l0,1.1c0.9-0.9,1.5-1.2,2.5-1.2c0.9,0,1.6,0.4,1.9,1c0.2,0.4,0.3,1,0.3,2
			v4.3h-1.6v-4.2c0-0.6,0-0.9-0.1-1.2c-0.2-0.4-0.5-0.6-1-0.6c-0.6,0-1.3,0.4-1.9,1.2v4.8h-1.6V93.7z"/>
		<path class="st0" d="M257.4,95.3c0.1,1.3,0.8,2,2.1,2c0.7,0,1.4-0.2,2.1-0.7l0.6,1.2c-0.9,0.5-1.7,0.7-2.7,0.7
			c-2.4,0-3.7-1.3-3.7-3.7c0-2.3,1.3-3.7,3.4-3.7c1.5,0,2.5,0.6,2.9,1.8c0.3,0.7,0.3,1.3,0.3,2.5H257.4z M260.7,94.2
			c0-1.2-0.6-1.9-1.6-1.9c-1,0-1.6,0.7-1.7,1.9H260.7z"/>
		<path class="st0" d="M264.1,96.7c0.8,0.4,1.2,0.6,1.9,0.6c0.7,0,1.2-0.3,1.2-0.9c0-0.3-0.1-0.5-0.3-0.6c-0.2-0.1-0.4-0.2-1.1-0.5
			c-0.9-0.3-1.2-0.5-1.5-0.7c-0.4-0.3-0.5-0.8-0.5-1.3c0-1.3,1-2.2,2.6-2.2c0.8,0,1.5,0.2,2.3,0.5l-0.4,1.2
			c-0.6-0.4-1.3-0.5-1.8-0.5c-0.7,0-1.1,0.3-1.1,0.8c0,0.3,0.1,0.5,0.4,0.6c0.2,0.1,0.2,0.1,1.1,0.5c1.5,0.5,2,1.1,2,2
			c0,1.4-1.1,2.3-2.8,2.3c-0.9,0-1.6-0.2-2.3-0.6L264.1,96.7z"/>
		<path class="st0" d="M270.3,96.7c0.8,0.4,1.2,0.6,1.9,0.6c0.7,0,1.2-0.3,1.2-0.9c0-0.3-0.1-0.5-0.3-0.6c-0.2-0.1-0.4-0.2-1.1-0.5
			c-0.9-0.3-1.2-0.5-1.5-0.7c-0.4-0.3-0.5-0.8-0.5-1.3c0-1.3,1-2.2,2.6-2.2c0.8,0,1.5,0.2,2.3,0.5l-0.4,1.2
			c-0.6-0.4-1.3-0.5-1.8-0.5c-0.7,0-1.1,0.3-1.1,0.8c0,0.3,0.1,0.5,0.4,0.6c0.2,0.1,0.2,0.1,1.1,0.5c1.5,0.5,2,1.1,2,2
			c0,1.4-1.1,2.3-2.8,2.3c-0.9,0-1.6-0.2-2.3-0.6L270.3,96.7z"/>
	</g>
</g>
</svg>
