<?xml version="1.0" encoding="utf-8"?>
<!-- Generator: Adobe Illustrator 24.1.0, SVG Export Plug-In . SVG Version: 6.00 Build 0)  -->
<svg version="1.1" id="Layer_1" xmlns="http://www.w3.org/2000/svg" xmlns:xlink="http://www.w3.org/1999/xlink" x="0px" y="0px"
	 viewBox="0 0 262.8 282.9" style="enable-background:new 0 0 262.8 282.9;" xml:space="preserve">
<style type="text/css">
	.st0{fill:#FFBF01;}
	.st1{fill:#09254C;}
	.st2{fill:#C4D5DE;}
	.st3{fill:#FFFFFF;}
</style>
<g>
	<g>
		<circle id="_Path__23_" class="st0" cx="125" cy="96.6" r="55.1"/>
		<circle id="_Path_2_14_" class="st1" cx="131.1" cy="107.2" r="36.8"/>
		<circle id="_Path_3_14_" class="st2" cx="125" cy="96.6" r="18.4"/>
		<path class="st3" d="M59.4,198.5c0-3.6-2.7-5.3-6.4-5.3c-2.8,0.1-5.5,1.1-7.6,3l-2.5-3.6c2.9-2.5,6.6-3.8,10.5-3.7
			c6.9,0,10.8,3.9,10.8,9.6v18.2h-4.8v-3.1c-1.6,2.7-5.3,3.8-8.1,3.8c-6,0-9.8-3.6-9.8-8.6c0-5.3,3.6-8.1,9.5-8.1h6.3
			c1.5,0,2-0.8,2-1.9L59.4,198.5z M59.4,206.7v-2.9c-0.9,0.6-1.9,0.9-3,0.8h-4.3c-3.8,0-5.6,1.5-5.6,4.2c0,2.3,1.8,4.5,5.5,4.5
			S59.4,211.5,59.4,206.7z"/>
		<polygon class="st3" points="71.8,193.6 67.5,193.6 67.5,189.6 76.6,189.6 76.6,216.7 71.8,216.7 		"/>
		<path class="st3" d="M107,197.7v19h-4.8v-17.8c0-3.3-2-5.9-5.8-5.9c-2.7,0-5.3,1.5-8.1,4.7v19h-4.8v-27.1h4.7v3.7
			c2.2-2.8,5.5-4.4,9.1-4.4c4.5,0,7.3,1.8,8.7,5.1c3-3.5,6.2-5.1,10-5.1c6.4,0,9.7,4.1,9.7,10.1v17.7H121v-17.8c0-3.3-2-5.9-5.7-5.9
			C112.5,193,109.7,194.6,107,197.7z"/>
		<path class="st3" d="M145.4,209.3c0-2.2-2-3.2-5.6-4.5l-1.3-0.5c-4.4-1.6-7.4-3.6-7.4-7.8c0-4.2,4.1-7.6,9.7-7.6
			c3.4,0,6.7,1.2,9.3,3.3l-2.4,3.4c-2-1.6-4.5-2.5-7-2.7c-2.7,0-4.7,1.3-4.7,3.3c0,1.6,1.3,2.8,3.8,3.7l3,1.1
			c5.3,1.9,7.6,4.4,7.6,8.4c0,3.6-3.1,8-10.3,8c-3.6,0-7.2-1.3-10-3.6l2.4-3.6c2.2,1.8,4.9,2.9,7.7,3
			C143.3,213.3,145.4,211.5,145.4,209.3z"/>
		<path class="st3" d="M155,207v-17.4h4.8v16.8c0,4.7,3.2,6.9,7.3,6.9c4.1,0,7.3-2.2,7.3-6.9v-16.8h4.8V207c0,5.7-4.5,10.5-12,10.5
			S155,212.7,155,207z"/>
		<path class="st3" d="M208.4,216.7h-4.8v-17.4c0-3.7-2.1-6.3-6-6.3c-2.7,0-5.7,1.5-8.5,4.7v19h-4.8v-27.1h4.7v3.7
			c2.3-2.8,5.8-4.5,9.4-4.4c6.4,0,10,4.1,10,10.1L208.4,216.7z"/>
		<path class="st0" d="M217.4,209.6c2.2,0,3.9,1.8,3.9,3.9s-1.8,3.9-3.9,3.9c-2.2,0-3.9-1.8-3.9-3.9l0,0
			C213.5,211.4,215.3,209.6,217.4,209.6L217.4,209.6z"/>
		<path class="st0" d="M73.8,175.9c2.2,0,3.9,1.8,3.9,3.9c0,2.2-1.8,3.9-3.9,3.9c-2.1,0-3.9-1.8-3.9-3.9l0,0
			C69.9,177.6,71.7,175.9,73.8,175.9L73.8,175.9z"/>
	</g>
	<g>
		<path class="st3" d="M96,238.4l-1,2.8h-1.7l3.6-9.7h1.9l3.7,9.7h-1.8l-1-2.8H96z M98.4,234.8c-0.2-0.7-0.3-0.9-0.5-1.7
			c-0.2,0.6-0.2,0.8-0.5,1.7l-0.8,2.3h2.7L98.4,234.8z"/>
		<path class="st3" d="M107.1,239.4c1.2,0.5,1.8,0.6,2.6,0.6c1,0,1.7-0.5,1.7-1.4c0-0.7-0.3-1-1.9-1.6c-1.2-0.5-1.5-0.7-1.9-1
			c-0.5-0.4-0.8-1-0.8-1.8c0-1.8,1.2-2.9,3.3-2.9c0.9,0,1.6,0.1,2.7,0.5l-0.3,1.5c-1-0.4-1.6-0.6-2.3-0.6c-0.9,0-1.5,0.5-1.5,1.2
			c0,0.6,0.4,1,1.8,1.5c1.2,0.5,1.6,0.7,2,1.1c0.5,0.5,0.8,1.1,0.8,1.9c0,1.8-1.3,2.9-3.4,2.9c-1,0-1.9-0.1-2.9-0.5L107.1,239.4z"/>
		<path class="st3" d="M116.9,231.7c0,0.6-0.4,1-1,1c-0.6,0-1-0.4-1-1c0-0.6,0.4-1,1-1C116.4,230.7,116.9,231.1,116.9,231.7z
			 M115,234h1.6v7.2H115V234z"/>
		<path class="st3" d="M120.2,238.1c0.1,1.4,0.8,2,2.1,2c0.7,0,1.4-0.2,2.1-0.7l0.6,1.2c-0.9,0.5-1.7,0.7-2.8,0.7
			c-2.4,0-3.8-1.3-3.8-3.7c0-2.3,1.3-3.8,3.4-3.8c1.5,0,2.5,0.6,3,1.8c0.3,0.7,0.3,1.3,0.4,2.5H120.2z M123.5,237
			c0-1.2-0.6-1.9-1.6-1.9c-1,0-1.6,0.7-1.7,1.9H123.5z"/>
		<path class="st3" d="M126.9,236.5c0-1,0-1.4-0.1-2.5h1.6l0.1,1.1c0.8-0.9,1.4-1.2,2.4-1.2c1,0,1.6,0.4,1.9,1.3
			c0.8-1,1.5-1.3,2.4-1.3c0.9,0,1.5,0.4,1.9,1c0.2,0.4,0.3,1,0.3,2v4.3h-1.6V237c0-0.6,0-0.9-0.1-1.2c-0.1-0.4-0.5-0.6-0.9-0.6
			c-0.6,0-1.2,0.4-1.7,1.2v4.9h-1.6v-4.4c0-1.2-0.3-1.7-1-1.7c-0.6,0-1.2,0.4-1.7,1.2v4.9h-1.6V236.5z"/>
		<path class="st3" d="M140.9,238.1c0.1,1.4,0.8,2,2.1,2c0.7,0,1.4-0.2,2.1-0.7l0.6,1.2c-0.9,0.5-1.7,0.7-2.8,0.7
			c-2.4,0-3.8-1.3-3.8-3.7c0-2.3,1.3-3.8,3.4-3.8c1.5,0,2.5,0.6,3,1.8c0.3,0.7,0.3,1.3,0.4,2.5H140.9z M144.2,237
			c0-1.2-0.6-1.9-1.6-1.9c-1,0-1.6,0.7-1.7,1.9H144.2z"/>
		<path class="st3" d="M147.6,236.5c0-1,0-1.4-0.1-2.5h1.6l0,1.1c0.9-0.9,1.5-1.2,2.5-1.2c0.9,0,1.6,0.4,2,1c0.2,0.4,0.3,1,0.3,2
			v4.3h-1.6V237c0-0.6,0-0.9-0.1-1.2c-0.2-0.4-0.5-0.6-1-0.6c-0.6,0-1.3,0.4-1.9,1.2v4.9h-1.6V236.5z"/>
		<path class="st3" d="M156.1,239.5c0.8,0.4,1.3,0.6,1.9,0.6c0.7,0,1.2-0.3,1.2-0.9c0-0.3-0.1-0.5-0.3-0.6c-0.2-0.1-0.4-0.2-1.2-0.5
			c-0.9-0.3-1.2-0.5-1.5-0.7c-0.4-0.3-0.5-0.8-0.5-1.3c0-1.3,1-2.2,2.6-2.2c0.8,0,1.5,0.2,2.3,0.5l-0.4,1.3
			c-0.6-0.4-1.3-0.5-1.8-0.5c-0.7,0-1.1,0.3-1.1,0.8c0,0.3,0.1,0.5,0.4,0.6c0.2,0.1,0.2,0.1,1.1,0.5c1.5,0.5,2,1.1,2,2.1
			c0,1.4-1.1,2.3-2.8,2.3c-0.9,0-1.6-0.2-2.4-0.6L156.1,239.5z"/>
		<path class="st3" d="M166.2,231.5h2.6c1.4,0,2,0.1,2.6,0.5c0.7,0.4,1.1,1.2,1.1,2.1c0,1.2-0.5,1.9-1.7,2.2c1.3,0.3,1.9,1,1.9,2.3
			c0,1-0.4,1.7-1.1,2.2c-0.6,0.4-1.2,0.5-2.5,0.5h-2.9V231.5z M168.7,235.7c0.8,0,1.3-0.1,1.5-0.3c0.3-0.2,0.5-0.6,0.5-1.1
			c0-0.5-0.2-1-0.5-1.2c-0.4-0.2-0.7-0.3-1.6-0.3h-0.7v2.9H168.7z M168.7,239.9c0.9,0,1.3,0,1.6-0.2c0.4-0.2,0.6-0.7,0.6-1.3
			c0-0.6-0.3-1.1-0.7-1.3c-0.4-0.2-0.7-0.2-1.5-0.2h-0.8v3H168.7z"/>
		<path class="st3" d="M180.8,238.7c0,1,0,1.6,0.1,2.5h-1.6l0-1.1c-0.8,0.9-1.5,1.2-2.5,1.2c-0.9,0-1.6-0.4-1.9-1
			c-0.2-0.4-0.3-1-0.3-2V234h1.6v4.2c0,0.7,0,0.9,0.1,1.2c0.2,0.4,0.5,0.6,1,0.6c0.6,0,1.3-0.4,1.9-1.2V234h1.6V238.7z"/>
		<path class="st3" d="M183,239.5c0.8,0.4,1.3,0.6,1.9,0.6c0.7,0,1.2-0.3,1.2-0.9c0-0.3-0.1-0.5-0.3-0.6c-0.2-0.1-0.4-0.2-1.2-0.5
			c-0.9-0.3-1.2-0.5-1.5-0.7c-0.4-0.3-0.5-0.8-0.5-1.3c0-1.3,1-2.2,2.6-2.2c0.8,0,1.5,0.2,2.3,0.5l-0.4,1.3
			c-0.6-0.4-1.3-0.5-1.8-0.5c-0.7,0-1.1,0.3-1.1,0.8c0,0.3,0.1,0.5,0.4,0.6c0.2,0.1,0.2,0.1,1.1,0.5c1.5,0.5,2,1.1,2,2.1
			c0,1.4-1.1,2.3-2.8,2.3c-0.9,0-1.6-0.2-2.4-0.6L183,239.5z"/>
		<path class="st3" d="M191.3,231.7c0,0.6-0.4,1-1,1c-0.6,0-1-0.4-1-1c0-0.6,0.4-1,1-1C190.9,230.7,191.3,231.1,191.3,231.7z
			 M189.5,234h1.6v7.2h-1.6V234z"/>
		<path class="st3" d="M193.5,236.5c0-1,0-1.4-0.1-2.5h1.6l0,1.1c0.9-0.9,1.5-1.2,2.5-1.2c0.9,0,1.6,0.4,2,1c0.2,0.4,0.3,1,0.3,2
			v4.3h-1.6V237c0-0.6,0-0.9-0.1-1.2c-0.2-0.4-0.5-0.6-1-0.6c-0.6,0-1.3,0.4-1.9,1.2v4.9h-1.6V236.5z"/>
		<path class="st3" d="M203.3,238.1c0.1,1.4,0.8,2,2.1,2c0.7,0,1.4-0.2,2.1-0.7l0.6,1.2c-0.9,0.5-1.7,0.7-2.8,0.7
			c-2.4,0-3.8-1.3-3.8-3.7c0-2.3,1.3-3.8,3.4-3.8c1.5,0,2.5,0.6,3,1.8c0.3,0.7,0.3,1.3,0.4,2.5H203.3z M206.6,237
			c0-1.2-0.6-1.9-1.6-1.9c-1,0-1.6,0.7-1.7,1.9H206.6z"/>
		<path class="st3" d="M209.9,239.5c0.8,0.4,1.3,0.6,1.9,0.6c0.7,0,1.2-0.3,1.2-0.9c0-0.3-0.1-0.5-0.3-0.6c-0.2-0.1-0.4-0.2-1.2-0.5
			c-0.9-0.3-1.2-0.5-1.5-0.7c-0.4-0.3-0.5-0.8-0.5-1.3c0-1.3,1-2.2,2.6-2.2c0.8,0,1.5,0.2,2.3,0.5l-0.4,1.3
			c-0.6-0.4-1.3-0.5-1.8-0.5c-0.7,0-1.1,0.3-1.1,0.8c0,0.3,0.1,0.5,0.4,0.6c0.2,0.1,0.2,0.1,1.1,0.5c1.5,0.5,2,1.1,2,2.1
			c0,1.4-1.1,2.3-2.8,2.3c-0.9,0-1.6-0.2-2.4-0.6L209.9,239.5z"/>
		<path class="st3" d="M216.2,239.5c0.8,0.4,1.3,0.6,1.9,0.6c0.7,0,1.2-0.3,1.2-0.9c0-0.3-0.1-0.5-0.3-0.6c-0.2-0.1-0.4-0.2-1.2-0.5
			c-0.9-0.3-1.2-0.5-1.5-0.7c-0.4-0.3-0.5-0.8-0.5-1.3c0-1.3,1-2.2,2.6-2.2c0.8,0,1.5,0.2,2.3,0.5l-0.4,1.3
			c-0.6-0.4-1.3-0.5-1.8-0.5c-0.7,0-1.1,0.3-1.1,0.8c0,0.3,0.1,0.5,0.4,0.6c0.2,0.1,0.2,0.1,1.1,0.5c1.5,0.5,2,1.1,2,2.1
			c0,1.4-1.1,2.3-2.8,2.3c-0.9,0-1.6-0.2-2.4-0.6L216.2,239.5z"/>
	</g>
</g>
</svg>
