<svg id="Layer_1" data-name="Layer 1" xmlns="http://www.w3.org/2000/svg" viewBox="0 0 280 45"><defs><style>.cls-1{fill:#fff;}.cls-2{fill:#d33479;}.cls-3{fill:#ffbf01;}</style></defs><path class="cls-1" d="M18.72,25.34c0-3.54-2.64-5.22-6.36-5.22a11.8,11.8,0,0,0-7.5,2.94L2.34,19.49a15.71,15.71,0,0,1,10.38-3.66c6.84,0,10.74,3.9,10.74,9.54V43.43H18.72V40.34c-1.56,2.7-5.22,3.78-8,3.78C4.78,44.12,1,40.58,1,35.54c0-5.22,3.6-8,9.48-8h6.3c1.5,0,2-.78,2-1.92Zm0,8.22V30.65a4.13,4.13,0,0,1-3,.78h-4.2c-3.72,0-5.58,1.5-5.58,4.2,0,2.28,1.74,4.5,5.46,4.5s7.32-1.86,7.32-6.6Z"/><polygon class="cls-1" points="31.07 20.45 26.81 20.45 26.81 16.55 35.81 16.55 35.81 43.43 31.07 43.43 31.07 20.45"/><path class="cls-1" d="M66,24.59V43.43H61.3V25.79c0-3.3-2-5.88-5.76-5.88-2.7,0-5.28,1.5-8,4.68V43.43H42.72V16.55h4.62v3.66a11.6,11.6,0,0,1,9-4.38c4.44,0,7.26,1.8,8.64,5,3-3.48,6.12-5,9.9-5,6.36,0,9.66,4,9.66,10v17.6H79.8V25.79c0-3.3-2-5.88-5.7-5.88Q70,19.91,66,24.59Z"/><path class="cls-1" d="M104,36.05c0-2.22-2-3.18-5.58-4.5l-1.32-.48c-4.38-1.56-7.32-3.6-7.32-7.74s4-7.5,9.6-7.5a14.35,14.35,0,0,1,9.24,3.3l-2.4,3.36a12.49,12.49,0,0,0-7-2.64c-2.64,0-4.68,1.26-4.68,3.24,0,1.62,1.26,2.76,3.78,3.66l2.94,1.08c5.28,1.92,7.5,4.38,7.5,8.34,0,3.6-3.06,8-10.2,8a15.78,15.78,0,0,1-10-3.54L91,37.09a12.94,12.94,0,0,0,7.62,3C102,40.07,104,38.27,104,36.05Z"/><path class="cls-1" d="M113.62,33.77V16.55h4.74V33.17c0,4.62,3.18,6.84,7.2,6.84s7.2-2.22,7.2-6.84V16.55h4.74V33.77c0,5.64-4.44,10.38-11.94,10.38S113.62,39.41,113.62,33.77Z"/><path class="cls-1" d="M166.72,43.43H162V26.15c0-3.66-2.1-6.24-6-6.24-2.7,0-5.64,1.5-8.4,4.68V43.43h-4.74V16.55h4.62v3.66a12,12,0,0,1,9.36-4.38c6.36,0,9.9,4,9.9,10Z"/><path class="cls-2" d="M175.66,36.34a3.9,3.9,0,1,1-3.9,3.9h0a3.89,3.89,0,0,1,3.88-3.9Z"/><path class="cls-3" d="M33,2.9a3.9,3.9,0,1,1-3.9,3.9A3.91,3.91,0,0,1,33,2.9Z"/><path class="cls-2" d="M199.42,20.39h-2.24c-3.63,0-7.33,1.33-7.33,9.09V43.41h-4.79V16.27h4.67v4.3a8.1,8.1,0,0,1,7.33-4.91,15.1,15.1,0,0,1,2.36.12Z"/><path class="cls-2" d="M206,20.21h-4.3V16.27h9.08V43.41H206Zm-1.7-13.76A3.72,3.72,0,0,1,208,2.7a3.76,3.76,0,0,1,3.75,3.75,3.72,3.72,0,0,1-3.75,3.7A3.68,3.68,0,0,1,204.27,6.45Z"/><path class="cls-2" d="M240.63,20.81V1h4.78V43.41h-4.78V39c-1.46,2.85-5.46,5.15-9.7,5.15-7.94,0-13.87-6-13.87-14.3s5.75-14.3,13.69-14.3C235,15.54,239.17,17.9,240.63,20.81ZM231.42,40c5.57,0,9.45-4.36,9.45-10.12S237,19.72,231.42,19.72,222,24.08,222,29.84,225.84,40,231.42,40Z"/><path class="cls-2" d="M256.74,31.29c.61,4.91,3.76,8.61,8.79,8.61a8.57,8.57,0,0,0,7.21-3.39h5.69a14.37,14.37,0,0,1-13,7.63c-7.94,0-13.76-6-13.76-14.3s5.76-14.3,13.7-14.3c7,0,13.63,4.55,13.63,15.57v.18Zm.12-3.93h16.61a8.07,8.07,0,0,0-8.06-7.58C260.68,19.78,257.71,22.93,256.86,27.36Z"/></svg>